<svg width="180" height="51" viewBox="0 0 180 51" fill="none" xmlns="http://www.w3.org/2000/svg">
<g clip-path="url(#clip0_17_192)">
<path d="M67.4872 1.90696C62.2531 -0.8262 57.0302 -0.658727 52.1757 2.65724C47.4239 5.90398 45.7737 10.6982 46.323 16.3297C46.3923 17.0421 46.6602 17.7745 46.2449 18.4444C44.8627 19.4313 42.9513 18.6587 41.645 19.8735C41.4485 21.872 43.601 22.6401 43.9159 24.4153C43.0919 25.4202 41.9777 26.0722 40.8969 26.6997H40.8947C39.4165 26.9788 38.1972 26.2129 36.9646 26.856C36.4488 28.3967 36.8776 30.1563 35.8861 31.5452C33.6554 31.7529 31.1321 30.431 29.5132 33.1552C29.109 34.4905 29.3189 36.1094 28.62 37.4447C27.4901 37.9472 26.3804 37.4336 25.2415 37.8846C24.5158 38.3245 23.8057 38.9922 23.0153 39.8541C22.7473 42.3506 21.8296 44.9096 21.997 47.7454C24.8016 48.6565 27.1887 48.4019 29.4574 46.6133C35.4172 41.9129 41.4239 37.2706 47.4328 32.6304C48.1117 32.1057 48.6744 31.3041 49.6055 31.3309C50.7979 31.8913 51.1016 33.4142 52.4883 33.633C52.7183 33.5594 52.9885 33.5415 53.1716 33.4053C54.5471 32.3781 53.9062 30.4466 55.0517 29.1671C56.1102 29.4976 57.1753 29.8705 58.2605 30.1585C66.6074 32.3848 74.4674 27.3964 76.0015 18.9088C77.2118 12.2255 73.6948 5.15147 67.4872 1.90696ZM70.3119 24.8753H53.1358C53.147 22.1042 54.5426 20.1481 56.2218 18.3461C57.843 16.6066 59.7946 15.2512 61.6457 13.7774C62.923 12.7592 64.2136 11.7298 64.5396 9.98139C64.4079 8.54336 63.6018 7.70823 62.2062 7.58764C60.2121 7.41347 59.6919 9.04131 59.0398 10.4793C57.2021 10.7093 55.4604 10.399 53.7231 10.1265C53.6762 6.93562 55.0919 4.81652 57.9099 3.97693C60.4622 3.21548 63.0837 3.20655 65.6517 3.85188C69.9122 4.92147 71.636 9.00112 69.5571 12.8619C68.4719 14.8761 66.6297 16.1154 64.8701 17.4395C63.9233 18.1541 62.8046 18.6811 62.0141 19.9516C64.917 20.5344 67.7038 19.7797 70.3297 20.4585H70.3342C70.6357 22.006 70.6647 23.3614 70.3119 24.8753Z" fill="white"/>
<path d="M56.1593 34.4034H60.6989C61.7216 34.4034 62.5032 34.4816 63.0391 34.6379C63.7603 34.85 64.3789 35.2274 64.8947 35.77C65.4105 36.3126 65.8013 36.9781 66.0692 37.7641C66.3372 38.5501 66.4712 39.5192 66.4712 40.6714C66.4712 41.6852 66.3461 42.556 66.0938 43.2907C65.7856 44.1861 65.348 44.9096 64.7763 45.4634C64.3454 45.8832 63.7626 46.2092 63.0301 46.4459C62.4808 46.62 61.7484 46.7071 60.8307 46.7071H56.1571V34.4057L56.1593 34.4034ZM58.6424 36.4846V44.6327H60.498C61.1924 44.6327 61.6926 44.5925 62.0007 44.5143C62.4027 44.4139 62.7376 44.2442 63.0033 44.003C63.2691 43.7618 63.4857 43.3666 63.6531 42.8151C63.8206 42.2635 63.9055 41.5132 63.9055 40.562C63.9055 39.6107 63.8206 38.8806 63.6531 38.3714C63.4857 37.8623 63.2512 37.4648 62.9475 37.179C62.6438 36.8932 62.262 36.7012 61.7975 36.6007C61.4514 36.5225 60.7704 36.4823 59.7588 36.4823H58.6424V36.4846Z" fill="white"/>
<path d="M70.8188 46.7071H68.4607V37.7953H70.6513V39.0614C71.0264 38.463 71.3636 38.0677 71.6628 37.8779C71.962 37.6881 72.3015 37.5921 72.6833 37.5921C73.2214 37.5921 73.7373 37.7395 74.2352 38.0365L73.505 40.093C73.1076 39.8362 72.7391 39.7067 72.3975 39.7067C72.0558 39.7067 71.7879 39.7983 71.5579 39.9791C71.3279 40.16 71.147 40.4905 71.0175 40.9661C70.8858 41.4417 70.821 42.4377 70.821 43.9538V46.7071H70.8188Z" fill="white"/>
<path d="M75.2512 36.5851V34.4034H77.6092V36.5851H75.2512ZM75.2512 46.7049V37.7931H77.6092V46.7049H75.2512Z" fill="white"/>
<path d="M82.4749 46.7071L78.8843 37.7953H81.3606L83.0398 42.3439L83.5266 43.8623C83.6561 43.476 83.7365 43.2214 83.77 43.0986C83.8482 42.8463 83.933 42.5962 84.0223 42.3439L85.7172 37.7953H88.1422L84.6007 46.7071H82.4771H82.4749Z" fill="white"/>
<path d="M89.5824 36.5851V34.4034H91.9405V36.5851H89.5824ZM89.5824 46.7049V37.7931H91.9405V46.7049H89.5824Z" fill="white"/>
<path d="M102.464 46.7071H100.106V42.1586C100.106 41.1961 100.057 40.5731 99.9546 40.2918C99.8541 40.0104 99.6911 39.7894 99.4633 39.6331C99.2378 39.4768 98.9632 39.3986 98.6461 39.3986C98.2374 39.3986 97.8712 39.5103 97.5475 39.7335C97.2237 39.9568 97.0004 40.2538 96.8798 40.6223C96.7592 40.9907 96.6989 41.674 96.6989 42.6699V46.7071H94.3409V37.7953H96.5315V39.1038C97.3085 38.0968 98.2888 37.5944 99.4678 37.5944C99.9881 37.5944 100.464 37.6881 100.895 37.8757C101.326 38.0633 101.652 38.3022 101.873 38.5925C102.094 38.8828 102.248 39.2133 102.335 39.5817C102.422 39.9501 102.464 40.4794 102.464 41.1671V46.7049V46.7071Z" fill="white"/>
<path d="M104.639 47.2944L107.332 47.6226C107.377 47.9352 107.48 48.1518 107.643 48.2679C107.866 48.4354 108.219 48.5203 108.701 48.5203C109.317 48.5203 109.777 48.4287 110.086 48.2434C110.293 48.1206 110.45 47.9218 110.557 47.6472C110.63 47.4507 110.666 47.0912 110.666 46.5642V45.2624C109.961 46.2248 109.072 46.7049 107.998 46.7049C106.801 46.7049 105.852 46.198 105.153 45.1864C104.604 44.387 104.331 43.3911 104.331 42.1987C104.331 40.7049 104.691 39.5638 105.41 38.7756C106.129 37.9873 107.022 37.5921 108.092 37.5921C109.161 37.5921 110.103 38.0767 110.818 39.0435V37.7931H113.024V45.7916C113.024 46.8433 112.937 47.6293 112.763 48.1496C112.589 48.6699 112.345 49.0785 112.033 49.3755C111.72 49.6725 111.3 49.9047 110.778 50.0722C110.255 50.2397 109.594 50.3245 108.793 50.3245C107.283 50.3245 106.211 50.0655 105.579 49.5474C104.948 49.0294 104.63 48.3729 104.63 47.5802C104.63 47.502 104.633 47.406 104.639 47.2944ZM106.745 42.067C106.745 43.0115 106.928 43.7037 107.294 44.1436C107.661 44.5835 108.112 44.8024 108.65 44.8024C109.226 44.8024 109.713 44.5768 110.11 44.1258C110.508 43.6747 110.706 43.0093 110.706 42.125C110.706 41.2408 110.517 40.5173 110.135 40.0685C109.755 39.6219 109.273 39.3963 108.692 39.3963C108.112 39.3963 107.661 39.6152 107.294 40.0551C106.928 40.495 106.745 41.1649 106.745 42.0647V42.067Z" fill="white"/>
<path d="M119.518 42.7034L121.934 42.4689C122.079 43.2795 122.374 43.8757 122.818 44.2553C123.262 44.6349 123.863 44.8269 124.618 44.8269C125.417 44.8269 126.02 44.6572 126.426 44.3201C126.833 43.9806 127.034 43.5854 127.034 43.1321C127.034 42.8418 126.949 42.594 126.777 42.3885C126.607 42.1853 126.308 42.0067 125.884 41.8549C125.594 41.7544 124.93 41.5757 123.894 41.3167C122.563 40.9862 121.628 40.5821 121.092 40.0997C120.337 39.4231 119.96 38.5969 119.96 37.6234C119.96 36.9959 120.138 36.4109 120.493 35.866C120.849 35.3212 121.36 34.9058 122.03 34.62C122.697 34.3342 123.506 34.1913 124.45 34.1913C125.996 34.1913 127.157 34.5307 127.938 35.2073C128.72 35.8839 129.128 36.7882 129.169 37.9181L126.686 38.0275C126.578 37.3956 126.351 36.9401 126.002 36.6632C125.652 36.3863 125.129 36.2479 124.428 36.2479C123.727 36.2479 123.142 36.3952 122.733 36.6922C122.47 36.882 122.338 37.1366 122.338 37.4559C122.338 37.7462 122.461 37.9963 122.706 38.2017C123.019 38.4652 123.78 38.7399 124.988 39.0234C126.197 39.3093 127.09 39.604 127.67 39.9077C128.249 40.2136 128.702 40.6289 129.03 41.1582C129.358 41.6874 129.521 42.3394 129.521 43.1165C129.521 43.8221 129.325 44.4808 128.934 45.0971C128.543 45.7134 127.987 46.169 127.273 46.4682C126.556 46.7674 125.665 46.917 124.595 46.917C123.041 46.917 121.847 46.5575 121.012 45.8385C120.179 45.1195 119.681 44.0722 119.518 42.6967V42.7034Z" fill="white"/>
<path d="M139.364 40.428L137.04 40.8478C136.962 40.3833 136.783 40.0327 136.506 39.7983C136.229 39.5638 135.87 39.4454 135.428 39.4454C134.84 39.4454 134.371 39.6486 134.023 40.0528C133.673 40.4592 133.498 41.1358 133.498 42.0871C133.498 43.1455 133.675 43.8913 134.032 44.3267C134.387 44.7622 134.865 44.981 135.463 44.981C135.91 44.981 136.278 44.8537 136.562 44.5991C136.848 44.3446 137.049 43.9069 137.167 43.2862L139.483 43.6814C139.242 44.7443 138.782 45.5482 138.098 46.0908C137.415 46.6334 136.502 46.9058 135.354 46.9058C134.05 46.9058 133.012 46.4949 132.237 45.6732C131.462 44.8515 131.073 43.7127 131.073 42.2568C131.073 40.8009 131.462 39.6397 132.239 38.8202C133.016 38.0007 134.068 37.5898 135.394 37.5898C136.479 37.5898 137.341 37.8243 137.982 38.291C138.623 38.7577 139.083 39.47 139.362 40.4257L139.364 40.428Z" fill="white"/>
<path d="M143.502 34.4034V38.9274C144.264 38.0387 145.172 37.5921 146.229 37.5921C146.771 37.5921 147.26 37.6926 147.698 37.8936C148.135 38.0945 148.464 38.3513 148.685 38.6662C148.906 38.9788 149.058 39.3271 149.138 39.7067C149.218 40.0863 149.259 40.6781 149.259 41.4775V46.7049H146.901V41.9978C146.901 41.0644 146.856 40.4704 146.767 40.2181C146.677 39.9658 146.519 39.767 146.293 39.6174C146.068 39.47 145.782 39.3941 145.443 39.3941C145.052 39.3941 144.701 39.4901 144.393 39.6799C144.085 39.8697 143.859 40.1578 143.716 40.5396C143.574 40.9215 143.502 41.4886 143.502 42.2389V46.7026H141.144V34.4012H143.502V34.4034Z" fill="white"/>
<path d="M151.105 42.1251C151.105 41.3413 151.297 40.5843 151.684 39.8519C152.07 39.1195 152.617 38.559 153.325 38.1727C154.033 37.7864 154.823 37.5944 155.696 37.5944C157.045 37.5944 158.15 38.032 159.01 38.9073C159.872 39.7827 160.303 40.8902 160.303 42.2255C160.303 43.5609 159.868 44.6908 158.999 45.5772C158.128 46.4637 157.034 46.9081 155.714 46.9081C154.897 46.9081 154.118 46.7228 153.376 46.3543C152.635 45.9859 152.072 45.4433 151.686 44.7309C151.3 44.0186 151.108 43.15 151.108 42.1251H151.105ZM153.521 42.2501C153.521 43.1344 153.731 43.811 154.151 44.2799C154.571 44.7488 155.089 44.9855 155.703 44.9855C156.317 44.9855 156.835 44.751 157.25 44.2799C157.668 43.811 157.876 43.1277 157.876 42.2322C157.876 41.3368 157.668 40.687 157.25 40.2181C156.833 39.7492 156.317 39.5125 155.703 39.5125C155.089 39.5125 154.571 39.7469 154.151 40.2181C153.731 40.6893 153.521 41.3659 153.521 42.2479V42.2501Z" fill="white"/>
<path d="M161.603 42.1251C161.603 41.3413 161.795 40.5843 162.181 39.8519C162.567 39.1195 163.114 38.559 163.822 38.1727C164.53 37.7864 165.32 37.5944 166.194 37.5944C167.542 37.5944 168.648 38.032 169.507 38.9073C170.369 39.7827 170.8 40.8902 170.8 42.2255C170.8 43.5609 170.365 44.6908 169.496 45.5772C168.625 46.4637 167.531 46.9081 166.211 46.9081C165.394 46.9081 164.615 46.7228 163.873 46.3543C163.132 45.9859 162.569 45.4433 162.183 44.7309C161.797 44.0186 161.605 43.15 161.605 42.1251H161.603ZM164.019 42.2501C164.019 43.1344 164.229 43.811 164.648 44.2799C165.068 44.7488 165.586 44.9855 166.2 44.9855C166.814 44.9855 167.332 44.751 167.748 44.2799C168.165 43.811 168.373 43.1277 168.373 42.2322C168.373 41.3368 168.165 40.687 167.748 40.2181C167.33 39.7492 166.814 39.5125 166.2 39.5125C165.586 39.5125 165.068 39.7469 164.648 40.2181C164.229 40.6893 164.019 41.3659 164.019 42.2479V42.2501Z" fill="white"/>
<path d="M172.647 46.7071V34.4056H175.005V46.7071H172.647Z" fill="white"/>
<path d="M0 25.4939V10.3499H3.05694V17.0756L9.23558 10.3499H13.3465L7.64347 16.2494L13.6569 25.4961H9.70004L5.53777 18.3886L3.05917 20.9185V25.4961H0V25.4939Z" fill="white"/>
<path d="M15.2378 25.4939V10.3499H26.4674V12.9111H18.297V16.2695H25.9003V18.8218H18.297V22.9438H26.7577V25.4961H15.24L15.2378 25.4939Z" fill="white"/>
<path d="M33.3271 25.4939V19.121L27.7804 10.3499H31.3643L34.9282 16.3409L38.4205 10.3499H41.9442L36.3751 19.1411V25.4939H33.3271Z" fill="white"/>
<path d="M77.7611 20.5456L80.789 20.2508C80.9721 21.2668 81.3405 22.0127 81.8988 22.4905C82.457 22.9661 83.2073 23.2051 84.1541 23.2051C85.1567 23.2051 85.9114 22.9929 86.4183 22.5687C86.9252 22.1444 87.1798 21.6487 87.1798 21.0815C87.1798 20.7175 87.0726 20.4071 86.8582 20.1504C86.6438 19.8958 86.2709 19.6725 85.7395 19.4827C85.3755 19.3554 84.5448 19.1321 83.2475 18.8106C81.5795 18.3975 80.4094 17.8884 79.7373 17.2855C78.7905 16.4369 78.3193 15.4031 78.3193 14.1839C78.3193 13.4001 78.5426 12.6654 78.987 11.9821C79.4313 11.2988 80.0722 10.7786 80.9096 10.4213C81.7469 10.064 82.7585 9.88538 83.9419 9.88538C85.8757 9.88538 87.3316 10.3096 88.3096 11.1582C89.2877 12.0067 89.8013 13.1388 89.8504 14.5523L86.7399 14.6885C86.6059 13.8958 86.3201 13.3264 85.8824 12.9803C85.4447 12.6342 84.7882 12.46 83.9107 12.46C83.0331 12.46 82.2985 12.6453 81.7871 13.016C81.4566 13.2549 81.2936 13.5742 81.2936 13.9717C81.2936 14.3357 81.4477 14.6483 81.7559 14.9073C82.1489 15.2378 83.1023 15.5795 84.6141 15.9367C86.128 16.294 87.2467 16.6647 87.9725 17.0465C88.6982 17.4284 89.2654 17.9509 89.6762 18.6118C90.0871 19.275 90.2903 20.0923 90.2903 21.0659C90.2903 21.9479 90.0447 22.7763 89.5556 23.5467C89.0644 24.3171 88.3722 24.891 87.4745 25.2661C86.5768 25.6412 85.4604 25.8288 84.1206 25.8288C82.1734 25.8288 80.6773 25.3777 79.6323 24.4779C78.5873 23.578 77.9643 22.265 77.7611 20.5411V20.5456Z" fill="white"/>
<path d="M92.885 10.1511H95.9955V18.498C95.9955 19.8221 96.0335 20.6818 96.1117 21.0726C96.2456 21.7023 96.5627 22.2092 97.0629 22.591C97.5631 22.9729 98.2486 23.1649 99.1172 23.1649C99.9859 23.1649 100.667 22.984 101.114 22.6245C101.56 22.265 101.833 21.8206 101.922 21.2937C102.013 20.7689 102.058 19.8958 102.058 18.6766V10.1511H105.169V18.2457C105.169 20.0946 105.084 21.4031 104.916 22.1668C104.749 22.9304 104.438 23.5758 103.987 24.1005C103.534 24.6253 102.931 25.0451 102.174 25.3554C101.417 25.6681 100.43 25.8221 99.211 25.8221C97.7395 25.8221 96.623 25.6524 95.8638 25.313C95.1023 24.9736 94.5017 24.5315 94.0618 23.9889C93.6196 23.4462 93.3294 22.8768 93.1887 22.2806C92.9855 21.3986 92.8828 20.0946 92.8828 18.3707V10.1511H92.885Z" fill="white"/>
<path d="M118.312 19.8936L121.329 20.8493C120.866 22.5307 120.096 23.7789 119.022 24.5962C117.946 25.4135 116.581 25.8199 114.929 25.8199C112.884 25.8199 111.2 25.121 109.885 23.7231C108.569 22.3253 107.908 20.4138 107.908 17.9888C107.908 15.4232 108.569 13.4313 109.896 12.0134C111.22 10.5955 112.962 9.88538 115.119 9.88538C117.003 9.88538 118.535 10.4414 119.712 11.5556C120.413 12.2144 120.938 13.1611 121.288 14.3937L118.209 15.1284C118.026 14.329 117.646 13.6993 117.068 13.2371C116.49 12.7748 115.786 12.5426 114.96 12.5426C113.817 12.5426 112.89 12.9535 112.18 13.773C111.47 14.5925 111.113 15.9211 111.113 17.7566C111.113 19.7038 111.463 21.0927 112.165 21.9189C112.866 22.7451 113.777 23.1582 114.898 23.1582C115.724 23.1582 116.436 22.8947 117.03 22.3699C117.624 21.8452 118.053 21.0167 118.312 19.8891V19.8936Z" fill="white"/>
<path d="M133.858 19.8936L136.875 20.8493C136.412 22.5307 135.642 23.7789 134.568 24.5962C133.492 25.4135 132.127 25.8199 130.475 25.8199C128.429 25.8199 126.746 25.121 125.431 23.7231C124.115 22.3253 123.454 20.4138 123.454 17.9888C123.454 15.4232 124.115 13.4313 125.442 12.0134C126.766 10.5955 128.508 9.88538 130.665 9.88538C132.549 9.88538 134.081 10.4414 135.258 11.5556C135.959 12.2144 136.484 13.1611 136.834 14.3937L133.755 15.1284C133.572 14.329 133.192 13.6993 132.614 13.2371C132.036 12.7748 131.332 12.5426 130.506 12.5426C129.363 12.5426 128.436 12.9535 127.726 13.773C127.016 14.5925 126.659 15.9211 126.659 17.7566C126.659 19.7038 127.009 21.0927 127.71 21.9189C128.412 22.7451 129.323 23.1582 130.444 23.1582C131.27 23.1582 131.982 22.8947 132.576 22.3699C133.17 21.8452 133.599 21.0167 133.858 19.8891V19.8936Z" fill="white"/>
<path d="M139.543 25.5609V10.1511H150.969V12.757H142.656V16.1735H150.391V18.7704H142.656V22.9639H151.264V25.5609H139.543Z" fill="white"/>
<path d="M153.113 20.5456L156.141 20.2508C156.324 21.2668 156.692 22.0127 157.25 22.4905C157.809 22.9661 158.559 23.2051 159.506 23.2051C160.508 23.2051 161.263 22.9929 161.77 22.5687C162.277 22.1444 162.531 21.6487 162.531 21.0815C162.531 20.7175 162.424 20.4071 162.21 20.1504C161.996 19.8958 161.623 19.6725 161.091 19.4827C160.727 19.3554 159.897 19.1321 158.599 18.8106C156.931 18.3975 155.761 17.8884 155.089 17.2855C154.142 16.4369 153.671 15.4031 153.671 14.1839C153.671 13.4001 153.894 12.6654 154.339 11.9821C154.783 11.2988 155.424 10.7786 156.261 10.4213C157.099 10.064 158.11 9.88538 159.294 9.88538C161.227 9.88538 162.683 10.3096 163.661 11.1582C164.639 12.0067 165.153 13.1388 165.202 14.5523L162.092 14.6885C161.958 13.8958 161.672 13.3264 161.234 12.9803C160.796 12.6342 160.14 12.46 159.262 12.46C158.385 12.46 157.65 12.6453 157.139 13.016C156.808 13.2549 156.645 13.5742 156.645 13.9717C156.645 14.3357 156.799 14.6483 157.108 14.9073C157.501 15.2378 158.454 15.5795 159.966 15.9367C161.48 16.294 162.598 16.6647 163.324 17.0465C164.05 17.4284 164.617 17.9509 165.026 18.6118C165.434 19.2728 165.64 20.0923 165.64 21.0659C165.64 21.9479 165.394 22.7763 164.905 23.5467C164.414 24.3171 163.722 24.891 162.824 25.2661C161.926 25.6412 160.81 25.8288 159.47 25.8288C157.523 25.8288 156.027 25.3777 154.982 24.4779C153.937 23.578 153.314 22.265 153.111 20.5411L153.113 20.5456Z" fill="white"/>
<path d="M167.471 20.5456L170.499 20.2508C170.682 21.2668 171.05 22.0127 171.608 22.4905C172.167 22.9661 172.917 23.2051 173.864 23.2051C174.866 23.2051 175.621 22.9929 176.128 22.5687C176.635 22.1444 176.889 21.6487 176.889 21.0815C176.889 20.7175 176.782 20.4071 176.568 20.1504C176.354 19.8958 175.981 19.6725 175.449 19.4827C175.085 19.3554 174.255 19.1321 172.957 18.8106C171.289 18.3975 170.119 17.8884 169.447 17.2855C168.5 16.4369 168.029 15.4031 168.029 14.1839C168.029 13.4001 168.252 12.6654 168.697 11.9821C169.141 11.2988 169.782 10.7786 170.619 10.4213C171.457 10.064 172.468 9.88538 173.652 9.88538C175.585 9.88538 177.041 10.3096 178.019 11.1582C178.997 12.0067 179.511 13.1388 179.56 14.5523L176.45 14.6885C176.316 13.8958 176.03 13.3264 175.592 12.9803C175.154 12.6342 174.498 12.46 173.62 12.46C172.743 12.46 172.008 12.6453 171.497 13.016C171.166 13.2549 171.003 13.5742 171.003 13.9717C171.003 14.3357 171.157 14.6483 171.466 14.9073C171.859 15.2378 172.812 15.5795 174.324 15.9367C175.838 16.294 176.956 16.6647 177.682 17.0465C178.408 17.4284 178.975 17.9509 179.384 18.6118C179.792 19.2728 179.998 20.0923 179.998 21.0659C179.998 21.9479 179.752 22.7763 179.263 23.5467C178.772 24.3171 178.08 24.891 177.182 25.2661C176.284 25.6412 175.168 25.8288 173.828 25.8288C171.881 25.8288 170.385 25.3777 169.34 24.4779C168.295 23.578 167.672 22.265 167.469 20.5411L167.471 20.5456Z" fill="white"/>
</g>
<defs>
<clipPath id="clip0_17_192">
<rect width="180" height="50.3223" fill="white"/>
</clipPath>
</defs>
</svg>
