<?xml version="1.0" encoding="UTF-8"?><svg id="Layer_2" xmlns="http://www.w3.org/2000/svg" viewBox="0 0 806.1 225.36"><path d="m302.23,8.54c-23.44-12.24-46.83-11.49-68.57,3.36-21.28,14.54-28.67,36.01-26.21,61.23.31,3.19,1.51,6.47-.35,9.47-6.19,4.42-14.75.96-20.6,6.4-.88,8.95,8.76,12.39,10.17,20.34-3.69,4.5-8.68,7.42-13.52,10.23h-.01c-6.62,1.25-12.08-2.18-17.6.7-2.31,6.9-.39,14.78-4.83,21-9.99.93-21.29-4.99-28.54,7.21-1.81,5.98-.87,13.23-4,19.21-5.06,2.25-10.03-.05-15.13,1.97-3.25,1.97-6.43,4.96-9.97,8.82-1.2,11.18-5.31,22.64-4.56,35.34,12.56,4.08,23.25,2.94,33.41-5.07,26.69-21.05,53.59-41.84,80.5-62.62,3.04-2.35,5.56-5.94,9.73-5.82,5.34,2.51,6.7,9.33,12.91,10.31,1.03-.33,2.24-.41,3.06-1.02,6.16-4.6,3.29-13.25,8.42-18.98,4.74,1.48,9.51,3.15,14.37,4.44,37.38,9.97,72.58-12.37,79.45-50.38,5.42-29.93-10.33-61.61-38.13-76.14Zm12.65,102.86h-76.92c.05-12.41,6.3-21.17,13.82-29.24,7.26-7.79,16-13.86,24.29-20.46,5.72-4.56,11.5-9.17,12.96-17-.59-6.44-4.2-10.18-10.45-10.72-8.93-.78-11.26,6.51-14.18,12.95-8.23,1.03-16.03-.36-23.81-1.58-.21-14.29,6.13-23.78,18.75-27.54,11.43-3.41,23.17-3.45,34.67-.56,19.08,4.79,26.8,23.06,17.49,40.35-4.86,9.02-13.11,14.57-20.99,20.5-4.24,3.2-9.25,5.56-12.79,11.25,13,2.61,25.48-.77,37.24,2.27h.02c1.35,6.93,1.48,13-.1,19.78Z" fill="#00923d" stroke-width="0"/><path d="m251.5,154.07h20.33c4.58,0,8.08.35,10.48,1.05,3.23.95,6,2.64,8.31,5.07,2.31,2.43,4.06,5.41,5.26,8.93,1.2,3.52,1.8,7.86,1.8,13.02,0,4.54-.56,8.44-1.69,11.73-1.38,4.01-3.34,7.25-5.9,9.73-1.93,1.88-4.54,3.34-7.82,4.4-2.46.78-5.74,1.17-9.85,1.17h-20.93v-55.09Zm11.12,9.32v36.49h8.31c3.11,0,5.35-.18,6.73-.53,1.8-.45,3.3-1.21,4.49-2.29,1.19-1.08,2.16-2.85,2.91-5.32s1.13-5.83,1.13-10.09-.38-7.53-1.13-9.81-1.8-4.06-3.16-5.34-3.07-2.14-5.15-2.59c-1.55-.35-4.6-.53-9.13-.53h-5Z" fill="#00923d" stroke-width="0"/><path d="m317.15,209.17h-10.56v-39.91h9.81v5.67c1.68-2.68,3.19-4.45,4.53-5.3,1.34-.85,2.86-1.28,4.57-1.28,2.41,0,4.72.66,6.95,1.99l-3.27,9.21c-1.78-1.15-3.43-1.73-4.96-1.73s-2.73.41-3.76,1.22c-1.03.81-1.84,2.29-2.42,4.42-.59,2.13-.88,6.59-.88,13.38v12.33Z" fill="#00923d" stroke-width="0"/><path d="m337,163.84v-9.77h10.56v9.77h-10.56Zm0,45.32v-39.91h10.56v39.91h-10.56Z" fill="#00923d" stroke-width="0"/><path d="m369.35,209.17l-16.08-39.91h11.09l7.52,20.37,2.18,6.8c.58-1.73.94-2.87,1.09-3.42.35-1.13.73-2.25,1.13-3.38l7.59-20.37h10.86l-15.86,39.91h-9.51Z" fill="#00923d" stroke-width="0"/><path d="m401.18,163.84v-9.77h10.56v9.77h-10.56Zm0,45.32v-39.91h10.56v39.91h-10.56Z" fill="#00923d" stroke-width="0"/><path d="m458.87,209.17h-10.56v-20.37c0-4.31-.22-7.1-.68-8.36-.45-1.26-1.18-2.25-2.2-2.95-1.01-.7-2.24-1.05-3.66-1.05-1.83,0-3.47.5-4.92,1.5s-2.45,2.33-2.99,3.98c-.54,1.65-.81,4.71-.81,9.17v18.08h-10.56v-39.91h9.81v5.86c3.48-4.51,7.87-6.76,13.15-6.76,2.33,0,4.46.42,6.39,1.26,1.93.84,3.39,1.91,4.38,3.21.99,1.3,1.68,2.78,2.07,4.43.39,1.65.58,4.02.58,7.1v24.8Z" fill="#00923d" stroke-width="0"/><path d="m468.61,211.8l12.06,1.47c.2,1.4.66,2.37,1.39,2.89,1,.75,2.58,1.13,4.74,1.13,2.76,0,4.82-.41,6.2-1.24.93-.55,1.63-1.44,2.11-2.67.33-.88.49-2.49.49-4.85v-5.83c-3.16,4.31-7.14,6.46-11.95,6.46-5.36,0-9.61-2.27-12.74-6.8-2.46-3.58-3.68-8.04-3.68-13.38,0-6.69,1.61-11.8,4.83-15.33,3.22-3.53,7.22-5.3,12.01-5.3s9.01,2.17,12.21,6.5v-5.6h9.88v35.82c0,4.71-.39,8.23-1.17,10.56-.78,2.33-1.87,4.16-3.27,5.49-1.4,1.33-3.28,2.37-5.62,3.12s-5.3,1.13-8.89,1.13c-6.76,0-11.56-1.16-14.39-3.48-2.83-2.32-4.25-5.26-4.25-8.81,0-.35.01-.78.04-1.28Zm9.43-23.41c0,4.23.82,7.33,2.46,9.3,1.64,1.97,3.66,2.95,6.07,2.95,2.58,0,4.76-1.01,6.54-3.03,1.78-2.02,2.67-5,2.67-8.96s-.85-7.2-2.56-9.21c-1.7-2-3.86-3.01-6.46-3.01s-4.62.98-6.26,2.95c-1.64,1.97-2.46,4.97-2.46,9Z" fill="#00923d" stroke-width="0"/><path d="m535.24,191.24l10.82-1.05c.65,3.63,1.97,6.3,3.96,8,1.99,1.7,4.68,2.56,8.06,2.56,3.58,0,6.28-.76,8.1-2.27,1.82-1.52,2.72-3.29,2.72-5.32,0-1.3-.38-2.41-1.15-3.33-.76-.91-2.1-1.71-4-2.39-1.3-.45-4.27-1.25-8.91-2.41-5.96-1.48-10.15-3.29-12.55-5.45-3.38-3.03-5.07-6.73-5.07-11.09,0-2.81.8-5.43,2.39-7.87,1.59-2.44,3.88-4.3,6.88-5.58,2.99-1.28,6.61-1.92,10.84-1.92,6.92,0,12.12,1.52,15.62,4.55,3.5,3.03,5.33,7.08,5.51,12.14l-11.12.49c-.48-2.83-1.5-4.87-3.06-6.11-1.57-1.24-3.91-1.86-7.05-1.86s-5.76.66-7.59,1.99c-1.18.85-1.77,1.99-1.77,3.42,0,1.3.55,2.42,1.65,3.34,1.4,1.18,4.81,2.41,10.22,3.68,5.41,1.28,9.41,2.6,12.01,3.96,2.59,1.37,4.62,3.23,6.09,5.6,1.47,2.37,2.2,5.29,2.2,8.77,0,3.16-.88,6.11-2.63,8.87-1.75,2.76-4.24,4.8-7.44,6.14-3.21,1.34-7.2,2.01-11.99,2.01-6.96,0-12.31-1.61-16.05-4.83-3.73-3.22-5.96-7.91-6.69-14.07Z" fill="#00923d" stroke-width="0"/><path d="m624.12,181.05l-10.41,1.88c-.35-2.08-1.15-3.65-2.39-4.7-1.24-1.05-2.85-1.58-4.83-1.58-2.63,0-4.73.91-6.29,2.72-1.57,1.82-2.35,4.85-2.35,9.11,0,4.74.79,8.08,2.39,10.03,1.59,1.95,3.73,2.93,6.41,2.93,2,0,3.65-.57,4.92-1.71,1.28-1.14,2.18-3.1,2.71-5.88l10.37,1.77c-1.08,4.76-3.14,8.36-6.2,10.79s-7.15,3.65-12.29,3.65c-5.84,0-10.49-1.84-13.96-5.52-3.47-3.68-5.21-8.78-5.21-15.3s1.74-11.72,5.22-15.39c3.48-3.67,8.19-5.51,14.13-5.51,4.86,0,8.72,1.05,11.59,3.14,2.87,2.09,4.93,5.28,6.18,9.56Z" fill="#00923d" stroke-width="0"/><path d="m642.65,154.07v20.26c3.41-3.98,7.48-5.98,12.21-5.98,2.43,0,4.62.45,6.58,1.35,1.96.9,3.43,2.05,4.42,3.46.99,1.4,1.67,2.96,2.03,4.66s.54,4.35.54,7.93v23.41h-10.56v-21.08c0-4.18-.2-6.84-.6-7.97-.4-1.13-1.11-2.02-2.12-2.69-1.01-.66-2.29-1-3.81-1-1.75,0-3.32.43-4.7,1.28-1.38.85-2.39,2.14-3.03,3.85s-.96,4.25-.96,7.61v19.99h-10.56v-55.09h10.56Z" fill="#00923d" stroke-width="0"/><path d="m676.7,188.65c0-3.51.86-6.9,2.59-10.18s4.18-5.79,7.35-7.52c3.17-1.73,6.71-2.59,10.62-2.59,6.04,0,10.99,1.96,14.84,5.88,3.86,3.92,5.79,8.88,5.79,14.86s-1.95,11.04-5.84,15.01c-3.9,3.97-8.8,5.96-14.71,5.96-3.66,0-7.15-.83-10.47-2.48-3.32-1.65-5.84-4.08-7.57-7.27s-2.59-7.08-2.59-11.67Zm10.82.56c0,3.96.94,6.99,2.82,9.09s4.2,3.16,6.95,3.16,5.07-1.05,6.93-3.16c1.87-2.1,2.8-5.16,2.8-9.17s-.93-6.92-2.8-9.02c-1.87-2.1-4.18-3.16-6.93-3.16s-5.07,1.05-6.95,3.16-2.82,5.14-2.82,9.09Z" fill="#00923d" stroke-width="0"/><path d="m723.71,188.65c0-3.51.86-6.9,2.59-10.18s4.18-5.79,7.35-7.52c3.17-1.73,6.71-2.59,10.62-2.59,6.04,0,10.99,1.96,14.84,5.88,3.86,3.92,5.79,8.88,5.79,14.86s-1.95,11.04-5.84,15.01c-3.9,3.97-8.8,5.96-14.71,5.96-3.66,0-7.15-.83-10.47-2.48-3.32-1.65-5.84-4.08-7.57-7.27s-2.59-7.08-2.59-11.67Zm10.82.56c0,3.96.94,6.99,2.82,9.09s4.2,3.16,6.95,3.16,5.07-1.05,6.93-3.16c1.87-2.1,2.8-5.16,2.8-9.17s-.93-6.92-2.8-9.02c-1.87-2.1-4.18-3.16-6.93-3.16s-5.07,1.05-6.95,3.16-2.82,5.14-2.82,9.09Z" fill="#00923d" stroke-width="0"/><path d="m773.17,209.17v-55.09h10.56v55.09h-10.56Z" fill="#00923d" stroke-width="0"/><path d="m0,114.17V46.35h13.69v30.12l27.67-30.12h18.41l-25.54,26.42,26.93,41.41h-17.72l-18.64-31.83-11.1,11.33v20.5H0Z" fill="#00923d" stroke-width="0"/><path d="m68.24,114.17V46.35h50.29v11.47h-36.59v15.04h34.05v11.43h-34.05v18.46h37.89v11.43h-51.58Z" fill="#00923d" stroke-width="0"/><path d="m149.25,114.17v-28.54l-24.84-39.28h16.05l15.96,26.83,15.64-26.83h15.78l-24.94,39.37v28.45h-13.65Z" fill="#00923d" stroke-width="0"/><path d="m348.24,92.01l13.56-1.32c.82,4.55,2.47,7.89,4.97,10.03,2.5,2.13,5.86,3.2,10.1,3.2,4.49,0,7.87-.95,10.14-2.85,2.27-1.9,3.41-4.12,3.41-6.66,0-1.63-.48-3.02-1.44-4.17-.96-1.14-2.63-2.14-5.01-2.99-1.63-.57-5.35-1.57-11.16-3.01-7.47-1.85-12.71-4.13-15.72-6.83-4.24-3.8-6.35-8.43-6.35-13.89,0-3.51,1-6.8,2.99-9.86,1.99-3.06,4.86-5.39,8.61-6.99,3.75-1.6,8.28-2.4,13.58-2.4,8.66,0,15.18,1.9,19.56,5.7,4.38,3.8,6.68,8.87,6.9,15.2l-13.93.61c-.6-3.55-1.88-6.1-3.84-7.65-1.96-1.55-4.9-2.33-8.83-2.33s-7.22.83-9.51,2.49c-1.48,1.07-2.21,2.5-2.21,4.28,0,1.63.69,3.03,2.07,4.19,1.76,1.48,6.03,3.01,12.8,4.61,6.78,1.6,11.79,3.26,15.04,4.97,3.25,1.71,5.79,4.05,7.63,7.01,1.84,2.97,2.75,6.63,2.75,10.99,0,3.95-1.1,7.66-3.29,11.11-2.2,3.45-5.3,6.02-9.32,7.7-4.02,1.68-9.02,2.52-15.02,2.52-8.72,0-15.42-2.02-20.1-6.05-4.68-4.03-7.47-9.91-8.38-17.63Z" fill="#00923d" stroke-width="0"/><path d="m415.97,45.46h13.93v37.38c0,5.93.17,9.78.52,11.53.6,2.82,2.02,5.09,4.26,6.8,2.24,1.71,5.31,2.57,9.2,2.57s6.94-.81,8.94-2.42,3.22-3.6,3.62-5.96c.41-2.35.61-6.26.61-11.72v-38.18h13.93v36.25c0,8.28-.38,14.14-1.13,17.56-.75,3.42-2.14,6.31-4.16,8.66-2.03,2.35-4.73,4.23-8.12,5.62-3.39,1.4-7.81,2.09-13.27,2.09-6.59,0-11.59-.76-14.99-2.28-3.41-1.52-6.1-3.5-8.07-5.93-1.98-2.43-3.28-4.98-3.91-7.65-.91-3.95-1.37-9.79-1.37-17.51v-36.81Z" fill="#00923d" stroke-width="0"/><path d="m529.84,89.09l13.51,4.28c-2.07,7.53-5.52,13.12-10.33,16.78-4.82,3.66-10.93,5.48-18.33,5.48-9.16,0-16.7-3.13-22.59-9.39s-8.85-14.82-8.85-25.68c0-11.49,2.96-20.41,8.9-26.76,5.93-6.35,13.73-9.53,23.39-9.53,8.44,0,15.3,2.49,20.57,7.48,3.14,2.95,5.49,7.19,7.06,12.71l-13.79,3.29c-.82-3.58-2.52-6.4-5.11-8.47-2.59-2.07-5.74-3.11-9.44-3.11-5.12,0-9.27,1.84-12.45,5.51-3.18,3.67-4.78,9.62-4.78,17.84,0,8.72,1.57,14.94,4.71,18.64,3.14,3.7,7.22,5.55,12.24,5.55,3.7,0,6.89-1.18,9.55-3.53s4.58-6.06,5.74-11.11Z" fill="#00923d" stroke-width="0"/><path d="m599.46,89.09l13.51,4.28c-2.07,7.53-5.52,13.12-10.33,16.78-4.82,3.66-10.93,5.48-18.33,5.48-9.16,0-16.7-3.13-22.59-9.39s-8.85-14.82-8.85-25.68c0-11.49,2.96-20.41,8.9-26.76,5.93-6.35,13.73-9.53,23.39-9.53,8.44,0,15.3,2.49,20.57,7.48,3.14,2.95,5.49,7.19,7.06,12.71l-13.79,3.29c-.82-3.58-2.52-6.4-5.11-8.47-2.59-2.07-5.74-3.11-9.44-3.11-5.12,0-9.27,1.84-12.45,5.51-3.18,3.67-4.78,9.62-4.78,17.84,0,8.72,1.57,14.94,4.71,18.64,3.14,3.7,7.22,5.55,12.24,5.55,3.7,0,6.89-1.18,9.55-3.53s4.58-6.06,5.74-11.11Z" fill="#00923d" stroke-width="0"/><path d="m624.92,114.47V45.46h51.17v11.67h-37.23v15.3h34.64v11.63h-34.64v18.78h38.55v11.63h-52.49Z" fill="#00923d" stroke-width="0"/><path d="m685.69,92.01l13.56-1.32c.82,4.55,2.47,7.89,4.97,10.03,2.5,2.13,5.86,3.2,10.1,3.2,4.49,0,7.87-.95,10.14-2.85,2.27-1.9,3.41-4.12,3.41-6.66,0-1.63-.48-3.02-1.44-4.17-.96-1.14-2.63-2.14-5.01-2.99-1.63-.57-5.35-1.57-11.16-3.01-7.47-1.85-12.71-4.13-15.72-6.83-4.24-3.8-6.35-8.43-6.35-13.89,0-3.51,1-6.8,2.99-9.86,1.99-3.06,4.86-5.39,8.61-6.99,3.75-1.6,8.28-2.4,13.58-2.4,8.66,0,15.18,1.9,19.56,5.7,4.38,3.8,6.68,8.87,6.9,15.2l-13.93.61c-.6-3.55-1.88-6.1-3.84-7.65-1.96-1.55-4.9-2.33-8.83-2.33s-7.22.83-9.51,2.49c-1.48,1.07-2.21,2.5-2.21,4.28,0,1.63.69,3.03,2.07,4.19,1.76,1.48,6.03,3.01,12.8,4.61,6.78,1.6,11.79,3.26,15.04,4.97,3.25,1.71,5.79,4.05,7.62,7.01s2.75,6.63,2.75,10.99c0,3.95-1.1,7.66-3.29,11.11-2.2,3.45-5.3,6.02-9.32,7.7-4.02,1.68-9.02,2.52-15.02,2.52-8.72,0-15.42-2.02-20.1-6.05-4.68-4.03-7.47-9.91-8.38-17.63Z" fill="#00923d" stroke-width="0"/><path d="m749.99,92.01l13.56-1.32c.82,4.55,2.47,7.89,4.97,10.03,2.5,2.13,5.86,3.2,10.1,3.2,4.49,0,7.87-.95,10.14-2.85,2.27-1.9,3.41-4.12,3.41-6.66,0-1.63-.48-3.02-1.44-4.17-.96-1.14-2.63-2.14-5.01-2.99-1.63-.57-5.35-1.57-11.16-3.01-7.47-1.85-12.71-4.13-15.72-6.83-4.24-3.8-6.35-8.43-6.35-13.89,0-3.51,1-6.8,2.99-9.86,1.99-3.06,4.86-5.39,8.61-6.99,3.75-1.6,8.28-2.4,13.58-2.4,8.66,0,15.18,1.9,19.56,5.7,4.38,3.8,6.68,8.87,6.9,15.2l-13.93.61c-.6-3.55-1.88-6.1-3.84-7.65-1.96-1.55-4.9-2.33-8.83-2.33s-7.22.83-9.51,2.49c-1.48,1.07-2.21,2.5-2.21,4.28,0,1.63.69,3.03,2.07,4.19,1.76,1.48,6.03,3.01,12.8,4.61,6.78,1.6,11.79,3.26,15.04,4.97,3.25,1.71,5.79,4.05,7.62,7.01s2.75,6.63,2.75,10.99c0,3.95-1.1,7.66-3.29,11.11-2.2,3.45-5.3,6.02-9.32,7.7-4.02,1.68-9.02,2.52-15.02,2.52-8.72,0-15.42-2.02-20.1-6.05-4.68-4.03-7.47-9.91-8.38-17.63Z" fill="#00923d" stroke-width="0"/></svg>