<svg width="71" height="70" viewBox="0 0 71 70" fill="none" xmlns="http://www.w3.org/2000/svg">
<g clip-path="url(#clip0_75_499)">
<path d="M34.8841 70H0.5C0.5 46.6651 0.5 23.3349 0.5 0C23.8349 0 47.1651 0 70.5 0V70C59.9911 70 49.4867 70 38.9778 70C39.1243 69.9588 39.2709 69.8901 39.422 69.8764C45.2145 69.2811 50.2377 66.9732 54.3497 62.8658C60.3253 56.9039 62.7751 49.6507 61.5617 41.3031C60.6276 34.8787 57.4772 29.6219 52.4127 25.542C52.0556 25.2535 51.9228 24.965 51.9274 24.5163C51.9503 22.4923 51.9548 20.4684 51.9274 18.4444C51.9182 17.9499 52.0876 17.7484 52.5364 17.5698C56.1492 16.1595 59.7438 14.7125 63.3521 13.2884C63.9932 13.0366 64.474 12.6748 64.4877 11.9239C64.5014 11.1408 64.0206 10.7608 63.3475 10.4952C61.2778 9.68928 59.2172 8.86047 57.1521 8.04082C55.847 7.52339 54.5466 6.98764 53.2324 6.48852C52.0785 6.05351 51.0711 6.82279 51.268 7.97671C51.3687 8.55825 51.7625 8.86047 52.2799 9.06195C54.4092 9.89992 56.5385 10.7516 58.6677 11.5987C58.86 11.6766 59.0524 11.7682 59.3363 11.8964C58.9791 12.0521 58.7547 12.1574 58.5258 12.249C51.5885 14.9964 44.6467 17.7347 37.7186 20.505C37.1645 20.7248 36.7203 20.7294 36.1708 20.505C30.8042 18.3528 25.4284 16.2236 20.0571 14.0943C18.2576 13.38 16.458 12.6748 14.5485 11.9193C14.8004 11.7911 14.9332 11.7132 15.0705 11.6583C22.2139 8.81926 29.3572 5.98024 36.5097 3.15955C36.7707 3.05881 37.137 3.06797 37.4026 3.16871C38.8862 3.72735 40.3561 4.33636 41.8351 4.90875C42.609 5.20638 43.25 5.00491 43.6255 4.38673C44.088 3.62203 43.7537 2.72454 42.8242 2.34448C41.0796 1.63472 39.3395 0.92039 37.5674 0.28848C37.1462 0.137372 36.5646 0.187741 36.1388 0.352587C27.5897 3.71819 19.0543 7.11127 10.519 10.4998C9.63063 10.8524 9.38794 11.2004 9.38336 12.1345C9.38336 14.4332 9.36963 16.7273 9.39252 19.026C9.3971 19.5068 9.29178 19.7678 8.8293 20.015C7.40979 20.766 6.67256 21.9886 6.65883 23.6096C6.64509 25.542 6.64967 27.4743 6.65883 29.4067C6.65883 30.4599 7.14421 30.9681 8.18365 30.9773C9.88706 30.991 11.595 30.991 13.2985 30.9773C14.3516 30.9681 14.837 30.4736 14.837 29.425C14.8416 27.4697 14.837 25.5145 14.837 23.5592C14.837 22.2725 14.3013 21.2285 13.3122 20.4272C12.9504 20.1341 12.52 19.9235 12.1354 19.6808V13.9707C12.2956 14.0119 12.4284 14.0256 12.5521 14.076C15.5468 15.262 18.5369 16.4571 21.5362 17.6294C21.9254 17.7805 21.9437 18.0323 21.9391 18.3712C21.93 20.4409 21.9208 22.5106 21.9483 24.5804C21.9529 25.02 21.8018 25.2718 21.4675 25.5374C18.4545 27.9139 16.1237 30.8445 14.4661 34.3017C12.4376 38.5419 11.6592 43.0111 12.14 47.6817C12.4147 50.365 13.1199 52.9384 14.2463 55.3928C14.5073 55.9652 14.924 56.3178 15.5559 56.3178C16.1512 56.3178 16.6778 56.0156 16.7969 55.4386C16.8884 54.9899 16.8014 54.4404 16.6228 54.0054C13.8342 47.2375 14.1502 40.6299 17.6302 34.1964C18.7704 32.0854 20.2678 30.2401 21.9162 28.7656C23.1159 29.2785 24.192 29.741 25.3002 30.2126C16.3298 37.4383 15.9406 50.0903 23.0702 57.7968C30.1356 65.4347 41.8718 65.9979 49.5508 59.0469C53.2873 55.6676 55.4166 51.4182 55.7234 46.3904C56.1309 39.8195 53.6033 34.4528 48.5984 30.2218C49.7203 29.7272 50.8055 29.251 51.9503 28.7473C51.9457 28.7427 52.0327 28.8114 52.1151 28.8938C58.0953 34.8374 60.3574 41.9579 58.4891 50.1864C55.8699 61.7073 44.3811 69.2307 32.4435 66.7992C29.0733 66.1124 26.042 64.6791 23.3174 62.5865C22.5802 62.0187 21.7468 62.1057 21.266 62.7468C20.7715 63.4062 20.9088 64.18 21.6552 64.7616C24.4897 66.9687 27.6446 68.5255 31.1522 69.3131C32.3885 69.5879 33.6432 69.771 34.8887 69.9954L34.8841 70ZM19.8465 59.7383C19.8648 59.0149 19.2238 58.328 18.4957 58.2959C17.763 58.2639 17.0945 58.9004 17.0716 59.6468C17.0487 60.3794 17.6806 61.0525 18.4178 61.0892C19.1413 61.1258 19.8236 60.4756 19.8465 59.7383ZM46.3501 5.7925C46.3546 6.56636 46.9637 7.15248 47.7421 7.13417C48.4885 7.12043 49.0654 6.53431 49.07 5.7925C49.0792 5.04154 48.4473 4.39589 47.71 4.39131C46.9682 4.39131 46.3455 5.03238 46.3501 5.78792V5.7925Z" fill="white"/>
<path d="M34.8841 70C33.6386 69.7756 32.3794 69.597 31.1476 69.3177C27.6355 68.5301 24.4851 66.9732 21.6506 64.7661C20.9043 64.1846 20.7623 63.4107 21.2614 62.7513C21.7422 62.1103 22.5756 62.0279 23.3128 62.5911C26.042 64.6837 29.0687 66.117 32.4389 66.8038C44.3719 69.2353 55.8653 61.7119 58.4846 50.191C60.3528 41.9624 58.0908 34.842 52.1105 28.8984C52.0327 28.8206 51.9411 28.7473 51.9457 28.7519C50.8009 29.2556 49.7111 29.7318 48.5938 30.2263C53.5987 34.4574 56.1218 39.824 55.7188 46.395C55.4074 51.4228 53.2782 55.6676 49.5462 59.0515C41.8672 66.0025 30.1265 65.4393 23.0656 57.8014C15.936 50.0948 16.3252 37.4429 25.2956 30.2172C24.192 29.7455 23.1114 29.283 21.9117 28.7702C20.2632 30.2446 18.7658 32.09 17.6257 34.2009C14.1456 40.6391 13.8296 47.2421 16.6183 54.0099C16.7968 54.4449 16.8839 54.9944 16.7923 55.4432C16.6732 56.0201 16.142 56.3178 15.5513 56.3224C14.924 56.3224 14.5073 55.9698 14.2417 55.3974C13.1199 52.9384 12.4101 50.365 12.1354 47.6863C11.6546 43.0156 12.433 38.5465 14.4615 34.3063C16.1146 30.8491 18.4499 27.9185 21.4629 25.542C21.7972 25.2764 21.9483 25.0245 21.9437 24.5849C21.9162 22.5152 21.93 20.4455 21.9345 18.3757C21.9345 18.0415 21.9208 17.7896 21.5316 17.6339C18.5323 16.4617 15.5422 15.2666 12.5475 14.0806C12.4239 14.0302 12.2911 14.0165 12.1308 13.9753V19.6853C12.5154 19.928 12.9459 20.1387 13.3076 20.4317C14.2967 21.2331 14.8279 22.2771 14.8324 23.5638C14.8324 25.5191 14.837 27.4743 14.8324 29.4296C14.8324 30.4782 14.3471 30.9773 13.2939 30.9819C11.5905 30.9956 9.88248 30.9956 8.17907 30.9819C7.13962 30.9727 6.65424 30.4644 6.65424 29.4113C6.64966 27.4789 6.64051 25.5465 6.65424 23.6142C6.66798 21.9978 7.40521 20.7706 8.82472 20.0196C9.2872 19.7769 9.3971 19.5113 9.38794 19.0305C9.36504 16.7319 9.3742 14.4377 9.37878 12.1391C9.37878 11.2049 9.62605 10.8569 10.5144 10.5043C19.0452 7.12042 27.5805 3.72734 36.1296 0.366312C36.5555 0.196887 37.137 0.151097 37.5583 0.302206C39.3304 0.934115 41.075 1.64845 42.815 2.3582C43.7446 2.73826 44.0743 3.63576 43.6164 4.40046C43.2455 5.01405 42.5998 5.22011 41.826 4.92247C40.3469 4.35009 38.8816 3.74108 37.3934 3.18243C37.1278 3.08169 36.7615 3.07253 36.5005 3.17327C29.348 5.99397 22.2047 8.83298 15.0614 11.672C14.9194 11.7269 14.7866 11.8094 14.5394 11.933C16.4443 12.684 18.2484 13.3937 20.048 14.1081C25.4238 16.2419 30.7996 18.3666 36.1617 20.5187C36.7112 20.7385 37.1553 20.7385 37.7094 20.5187C44.6375 17.753 51.5793 15.0101 58.5166 12.2627C58.7456 12.1711 58.9699 12.0658 59.3271 11.9101C59.0386 11.7819 58.8509 11.6903 58.6586 11.6125C56.5293 10.7653 54.4046 9.91364 52.2708 9.07567C51.7533 8.86962 51.355 8.57198 51.2588 7.99044C51.0619 6.8411 52.0693 6.06723 53.2232 6.50225C54.5374 7.00136 55.8379 7.53711 57.1429 8.05455C59.208 8.8742 61.2686 9.703 63.3384 10.5089C64.0115 10.7699 64.4923 11.1546 64.4785 11.9376C64.4648 12.6885 63.984 13.0503 63.3429 13.3021C59.7392 14.7262 56.1401 16.1732 52.5272 17.5836C52.0785 17.7576 51.909 17.9636 51.9182 18.4582C51.9502 20.4821 51.9457 22.506 51.9182 24.53C51.9136 24.9787 52.0464 25.2672 52.4036 25.5557C57.468 29.6356 60.6184 34.8924 61.5525 41.3168C62.766 49.6644 60.3162 56.9176 54.3405 62.8796C50.2285 66.9824 45.2053 69.2948 39.4128 69.8901C39.2617 69.9038 39.1152 69.9725 38.9686 70.0137H34.875L34.8841 70ZM24.6499 18.8977C24.6499 21.4803 24.6637 23.9347 24.6362 26.3891C24.6316 26.8653 24.8056 27.0439 25.2177 27.2041C28.7619 28.5916 32.3061 29.9836 35.8274 31.426C36.6242 31.7512 37.3019 31.7969 38.0711 31.4077C38.7351 31.0689 39.454 30.8445 40.15 30.5698C43.1585 29.3746 46.1715 28.1795 49.1753 26.9844V18.939C48.9189 19.0305 48.7083 19.0992 48.5022 19.1771C44.9397 20.5874 41.3772 21.9932 37.8239 23.4173C37.2194 23.66 36.6562 23.6783 36.0518 23.431C34.1194 22.6434 32.1779 21.8833 30.241 21.114C28.4139 20.3905 26.5869 19.6624 24.6453 18.8932L24.6499 18.8977ZM35.3787 61.1441C36.18 61.1441 36.9035 61.1487 37.6224 61.1441C38.497 61.1349 38.4924 61.1304 38.497 60.2329C38.5153 57.4854 38.4375 54.7288 38.5748 51.986C38.7214 49.0188 41.3177 46.6972 44.2986 46.6789C46.9133 46.6606 49.5279 46.6789 52.138 46.6789C52.3853 46.6789 52.6325 46.6789 52.9347 46.6789V43.0248C49.9904 42.315 47.1422 41.5686 44.2666 40.9551C42.1236 40.4971 39.9531 40.0942 37.7735 39.8881C35.3878 39.6592 33.025 40.0896 30.6989 40.6666C27.4706 41.4679 24.2332 42.2326 20.918 43.0339V46.6834C21.2385 46.6834 21.4858 46.6834 21.7331 46.6834C24.3706 46.6834 27.0081 46.6697 29.6411 46.688C32.5167 46.7109 35.1039 49.0004 35.2688 51.8669C35.429 54.6327 35.3466 57.4076 35.3741 60.1825C35.3741 60.471 35.3741 60.7595 35.3741 61.1533L35.3787 61.1441ZM52.1151 39.9843C52.1014 39.8286 52.1059 39.7828 52.0876 39.7416C50.8879 36.3531 48.7861 33.6606 45.796 31.6733C45.5899 31.5359 45.187 31.5588 44.9351 31.655C42.5678 32.5662 40.205 33.5049 37.8513 34.4574C37.224 34.7138 36.647 34.7138 36.0151 34.4574C33.6844 33.5049 31.3353 32.5983 29.0046 31.655C28.5788 31.481 28.2628 31.5039 27.8827 31.7695C25.1033 33.7156 23.093 36.2569 21.8933 39.4302C21.8338 39.5859 21.8018 39.7553 21.7422 39.9889C24.334 39.3661 26.857 38.8166 29.3435 38.1435C34.1606 36.8431 38.9686 36.7286 43.8133 37.9649C46.5515 38.6655 49.3081 39.302 52.1197 39.9843H52.1151ZM52.3349 49.4309C52.1792 49.4171 52.0235 49.3988 51.8724 49.3988C49.4409 49.3988 47.014 49.3851 44.5826 49.3988C42.5769 49.4126 41.2811 50.7268 41.2765 52.7461C41.2673 55.1318 41.2765 57.5129 41.2765 59.8986C41.2765 60.0909 41.2994 60.2878 41.3131 60.4893C46.666 59.2438 51.3321 54.1794 52.3395 49.4309H52.3349ZM32.5946 60.4985C32.5946 57.8518 32.6037 55.2646 32.5946 52.682C32.5854 50.7176 31.2712 49.4171 29.2885 49.4034C27.4294 49.3897 25.5657 49.4034 23.7021 49.4034C22.9786 49.4034 22.2597 49.4034 21.527 49.4034C22.5985 54.4037 27.4203 59.2987 32.5946 60.503V60.4985ZM12.0896 28.2207C12.0896 26.6226 12.1216 25.0612 12.0758 23.4997C12.0529 22.7991 11.4165 22.2771 10.7525 22.2679C10.0702 22.2588 9.4612 22.7991 9.39252 23.5409C9.34673 24.0354 9.3742 24.5391 9.3742 25.0428C9.3742 26.1006 9.3742 27.1629 9.3742 28.2207H12.0942H12.0896Z" fill="black"/>
<path d="M19.8511 59.7384C19.8328 60.4756 19.1459 61.1258 18.4224 61.0892C17.6806 61.0526 17.0533 60.3794 17.0762 59.6468C17.0991 58.9004 17.7676 58.2639 18.5003 58.296C19.2283 58.328 19.874 59.0149 19.8511 59.7384Z" fill="black"/>
<path d="M46.3501 5.79249C46.3455 5.03694 46.9682 4.39587 47.71 4.39587C48.4519 4.39587 49.0792 5.04152 49.07 5.79706C49.0609 6.53887 48.4839 7.12499 47.7421 7.13873C46.9637 7.15704 46.3546 6.57092 46.3501 5.79706V5.79249Z" fill="black"/>
<path d="M24.6545 18.8978C26.596 19.667 28.4231 20.3905 30.2501 21.1186C32.1871 21.8879 34.1286 22.648 36.0609 23.4356C36.67 23.6829 37.2286 23.6646 37.833 23.4219C41.3864 21.9978 44.9489 20.592 48.5114 19.1817C48.7174 19.0992 48.9281 19.0306 49.1845 18.9436V26.989C46.1806 28.1841 43.1676 29.3792 40.1592 30.5744C39.4632 30.8491 38.7443 31.078 38.0803 31.4123C37.311 31.8015 36.6333 31.7557 35.8366 31.4306C32.3153 29.9837 28.7711 28.5962 25.2269 27.2087C24.8148 27.0485 24.6362 26.8699 24.6454 26.3937C24.6774 23.9393 24.6591 21.4895 24.6591 18.9023L24.6545 18.8978Z" fill="white"/>
<path d="M35.3832 61.1395C35.3832 60.7457 35.3832 60.4572 35.3832 60.1688C35.3603 57.3984 35.4382 54.6189 35.2779 51.8532C35.1131 48.9867 32.5259 46.6972 29.6503 46.6743C27.0127 46.6514 24.3752 46.6697 21.7422 46.6697C21.495 46.6697 21.2477 46.6697 20.9272 46.6697V43.0202C24.2424 42.2189 27.4798 41.4587 30.708 40.6528C33.0342 40.0759 35.397 39.6454 37.7827 39.8744C39.9623 40.085 42.1328 40.488 44.2758 40.9413C47.1514 41.5549 49.9996 42.3013 52.9439 43.011V46.6651C52.6371 46.6651 52.3898 46.6651 52.1471 46.6651C49.5325 46.6651 46.9179 46.6514 44.3078 46.6651C41.3223 46.6834 38.7305 49.005 38.584 51.9723C38.4466 54.7151 38.5199 57.4717 38.5061 60.2191C38.5016 61.1166 38.5061 61.1212 37.6315 61.1304C36.9126 61.1395 36.1937 61.1304 35.3878 61.1304L35.3832 61.1395ZM36.9447 48.5746C39.0144 48.5746 40.6491 46.9307 40.6491 44.861C40.6491 42.8004 38.9778 41.1336 36.9355 41.1382C34.8841 41.1428 33.2311 42.8096 33.2357 44.8701C33.2357 46.9444 34.875 48.5746 36.9493 48.5746H36.9447Z" fill="white"/>
<path d="M52.1197 39.9797C49.3081 39.2974 46.5515 38.6564 43.8133 37.9604C38.9686 36.724 34.1606 36.8385 29.3435 38.1389C26.857 38.8121 24.334 39.357 21.7422 39.9843C21.8063 39.7508 21.8338 39.5813 21.8933 39.4257C23.0976 36.2524 25.1033 33.711 27.8827 31.7649C28.2674 31.4947 28.5833 31.4764 29.0046 31.6504C31.3354 32.5983 33.6844 33.5049 36.0151 34.4528C36.6471 34.7138 37.224 34.7092 37.8513 34.4528C40.205 33.5004 42.5632 32.5662 44.9351 31.6504C45.187 31.5543 45.5899 31.5314 45.796 31.6687C48.7861 33.6561 50.8879 36.3485 52.0876 39.737C52.1014 39.7782 52.0968 39.8286 52.1151 39.9797H52.1197Z" fill="white"/>
<path d="M52.3349 49.4263C51.3275 54.1748 46.6614 59.2347 41.3085 60.4848C41.2948 60.2833 41.2765 60.0864 41.2719 59.8941C41.2719 57.5084 41.2627 55.1273 41.2719 52.7416C41.2765 50.7222 42.5724 49.408 44.578 49.3943C47.0049 49.3806 49.4364 49.3943 51.8678 49.3943C52.0235 49.3943 52.1746 49.4172 52.3303 49.4263H52.3349Z" fill="white"/>
<path d="M32.5946 60.4939C27.4202 59.2896 22.5985 54.3946 21.527 49.3943C22.2597 49.3943 22.9831 49.3943 23.7021 49.3943C25.5657 49.3943 27.4248 49.3851 29.2885 49.3943C31.2712 49.408 32.5808 50.7085 32.5946 52.6729C32.6083 55.26 32.5946 57.8426 32.5946 60.4893V60.4939Z" fill="white"/>
<path d="M12.0896 28.2207H9.36962C9.36962 27.1584 9.36962 26.1006 9.36962 25.0428C9.36962 24.5437 9.34215 24.04 9.38794 23.5409C9.45663 22.7991 10.0656 22.2588 10.7479 22.2679C11.4119 22.2771 12.053 22.7991 12.0713 23.4997C12.1171 25.0612 12.085 26.6226 12.085 28.2207H12.0896Z" fill="white"/>
<path d="M36.9401 48.5746C34.8658 48.5746 33.2311 46.9444 33.2265 44.8701C33.2265 42.8095 34.875 41.1428 36.9264 41.1382C38.9732 41.1336 40.64 42.805 40.64 44.861C40.64 46.9353 39.0053 48.5746 36.9355 48.5746H36.9401ZM36.9218 45.8409C37.4209 45.85 37.8788 45.4013 37.8926 44.893C37.9109 44.3527 37.5171 43.936 36.9767 43.9177C36.4044 43.8948 35.9648 44.3115 35.9694 44.8701C35.9694 45.3784 36.4181 45.8317 36.9218 45.8409Z" fill="black"/>
<path d="M36.9264 45.8409C36.4227 45.8318 35.9785 45.3784 35.9739 44.8701C35.9694 44.3115 36.4089 43.8948 36.9813 43.9177C37.5217 43.9406 37.9109 44.3573 37.8971 44.893C37.8834 45.4059 37.4255 45.8501 36.9264 45.8409Z" fill="white"/>
</g>
<defs>
<clipPath id="clip0_75_499">
<rect width="70" height="70" fill="white" transform="translate(0.5)"/>
</clipPath>
</defs>
</svg>
