<svg width="126" height="35" viewBox="0 0 126 35" fill="none" xmlns="http://www.w3.org/2000/svg">
<g clip-path="url(#clip0_234_452)">
<path d="M0.5 16.9444C0.5 19.7049 2.73958 21.9444 5.5 21.9444H9.78125C10.566 22.6354 11.5938 23.0556 12.7222 23.0556C13.8507 23.0556 14.8785 22.6354 15.6632 21.9444H16.6111C18.7604 21.9444 20.5 20.2049 20.5 18.0556C20.5 15.9062 18.7604 14.1667 16.6111 14.1667C16.2396 14.1667 15.8819 14.2187 15.5417 14.316C14.7986 12.9062 13.316 11.9444 11.6111 11.9444C10.4792 11.9444 9.44444 12.3681 8.65625 13.066C7.79514 12.3646 6.69792 11.9444 5.5 11.9444C2.73958 11.9444 0.5 14.184 0.5 16.9444Z" fill="#F78E69"/>
</g>
<g clip-path="url(#clip1_234_452)">
<path d="M25.5 16.9444C25.5 19.7049 27.7396 21.9444 30.5 21.9444H34.7812C35.566 22.6354 36.5938 23.0556 37.7222 23.0556C38.8507 23.0556 39.8785 22.6354 40.6632 21.9444H41.6111C43.7604 21.9444 45.5 20.2049 45.5 18.0556C45.5 15.9062 43.7604 14.1667 41.6111 14.1667C41.2396 14.1667 40.8819 14.2187 40.5417 14.316C39.7986 12.9062 38.316 11.9444 36.6111 11.9444C35.4792 11.9444 34.4444 12.3681 33.6562 13.066C32.7951 12.3646 31.6979 11.9444 30.5 11.9444C27.7396 11.9444 25.5 14.184 25.5 16.9444Z" fill="#F78E69"/>
</g>
<g clip-path="url(#clip2_234_452)">
<path d="M50.5 16.9444C50.5 19.7049 52.7396 21.9444 55.5 21.9444H59.7812C60.566 22.6354 61.5938 23.0556 62.7222 23.0556C63.8507 23.0556 64.8785 22.6354 65.6632 21.9444H66.6111C68.7604 21.9444 70.5 20.2049 70.5 18.0556C70.5 15.9062 68.7604 14.1667 66.6111 14.1667C66.2396 14.1667 65.8819 14.2187 65.5417 14.316C64.7986 12.9062 63.316 11.9444 61.6111 11.9444C60.4792 11.9444 59.4444 12.3681 58.6562 13.066C57.7951 12.3646 56.6979 11.9444 55.5 11.9444C52.7396 11.9444 50.5 14.184 50.5 16.9444Z" fill="#F78E69"/>
</g>
<g clip-path="url(#clip3_234_452)">
<path d="M88.8828 5H93V12.5H84.1953L86.5703 6.57031C86.9453 5.625 87.8594 5 88.8828 5ZM96.75 12.5V5H103.094C103.852 5 104.57 5.34375 105.047 5.9375L110.297 12.5H96.75ZM116.766 12.5781L108.953 2.8125C107.531 1.03125 105.375 0 103.094 0H88.8828C85.8125 0 83.0547 1.86719 81.9219 4.71094L78.6719 12.8438C76.8125 13.5781 75.5 15.3828 75.5 17.5V26.25C75.5 27.6328 76.6172 28.75 78 28.75H80.6016C81.1953 32.2969 84.2812 35 88 35C91.7188 35 94.8047 32.2969 95.3984 28.75H105.602C106.195 32.2969 109.281 35 113 35C116.719 35 119.805 32.2969 120.398 28.75H123C124.383 28.75 125.5 27.6328 125.5 26.25V22.5C125.5 17.4062 121.688 13.2031 116.766 12.5781ZM109.461 26.25C109.62 25.7794 109.871 25.3451 110.2 24.9723C110.528 24.5995 110.927 24.2957 111.374 24.0786C111.821 23.8614 112.306 23.7352 112.802 23.7072C113.298 23.6793 113.795 23.7502 114.263 23.9158C114.732 24.0814 115.163 24.3384 115.531 24.672C115.899 25.0055 116.197 25.4089 116.408 25.8586C116.619 26.3084 116.739 26.7956 116.76 27.292C116.781 27.7883 116.703 28.2839 116.531 28.75C116.372 29.2206 116.121 29.6549 115.793 30.0277C115.464 30.4005 115.065 30.7043 114.618 30.9214C114.171 31.1386 113.686 31.2648 113.19 31.2928C112.694 31.3207 112.197 31.2498 111.729 31.0842C111.26 30.9186 110.83 30.6616 110.461 30.328C110.093 29.9945 109.795 29.5911 109.584 29.1414C109.373 28.6916 109.253 28.2044 109.232 27.708C109.211 27.2117 109.289 26.7161 109.461 26.25ZM88 23.75C88.9946 23.75 89.9484 24.1451 90.6517 24.8483C91.3549 25.5516 91.75 26.5054 91.75 27.5C91.75 28.4946 91.3549 29.4484 90.6517 30.1517C89.9484 30.8549 88.9946 31.25 88 31.25C87.0054 31.25 86.0516 30.8549 85.3483 30.1517C84.6451 29.4484 84.25 28.4946 84.25 27.5C84.25 26.5054 84.6451 25.5516 85.3483 24.8483C86.0516 24.1451 87.0054 23.75 88 23.75Z" fill="#F78E69"/>
</g>
<defs>
<clipPath id="clip0_234_452">
<rect width="20" height="11.1111" fill="white" transform="translate(0.5 11.9444)"/>
</clipPath>
<clipPath id="clip1_234_452">
<rect width="20" height="11.1111" fill="white" transform="translate(25.5 11.9444)"/>
</clipPath>
<clipPath id="clip2_234_452">
<rect width="20" height="11.1111" fill="white" transform="translate(50.5 11.9444)"/>
</clipPath>
<clipPath id="clip3_234_452">
<rect width="50" height="35" fill="white" transform="translate(75.5)"/>
</clipPath>
</defs>
</svg>
