<svg width="75" height="60" viewBox="0 0 75 60" fill="none" xmlns="http://www.w3.org/2000/svg">
<g clip-path="url(#clip0_75_512)">
<path d="M22.781 11.4325C24.2583 11.4325 25.6751 10.8456 26.7198 9.801C27.7644 8.75638 28.3513 7.33956 28.3513 5.86224C28.3513 4.38492 27.7644 2.96811 26.7198 1.92348C25.6751 0.878856 24.2583 0.291992 22.781 0.291992C21.3037 0.291992 19.8869 0.878856 18.8422 1.92348C17.7976 2.96811 17.2108 4.38492 17.2108 5.86224C17.2108 7.33956 17.7976 8.75638 18.8422 9.801C19.8869 10.8456 21.3037 11.4325 22.781 11.4325ZM21.8526 55.9945V41.1405H23.7094V55.9945C23.7094 58.0485 25.3689 59.708 27.4229 59.708C29.4769 59.708 31.1364 58.0485 31.1364 55.9945V22.573H37.635H45.062H46.9188C48.9728 22.573 50.6323 20.9135 50.6323 18.8595C50.6323 16.8055 48.9728 15.146 46.9188 15.146H45.062V7.71899H67.343V30H45.062V26.2865H37.635V31.8567C37.635 34.932 40.13 37.427 43.2053 37.427H69.1998C72.275 37.427 74.77 34.932 74.77 31.8567V5.86224C74.77 2.787 72.275 0.291992 69.1998 0.291992H43.2053C40.13 0.291992 37.635 2.787 37.635 5.86224V15.146H28.711H21.0519C17.1411 15.146 13.5205 17.2 11.5013 20.5538L4.73572 31.8103C3.67969 33.5626 4.24832 35.8488 6.00063 36.9048C7.75294 37.9608 10.0391 37.3922 11.0951 35.6399L14.4256 30.1044V55.9945C14.4256 58.0485 16.0851 59.708 18.1391 59.708C20.1932 59.708 21.8526 58.0485 21.8526 55.9945Z" fill="black"/>
</g>
<defs>
<clipPath id="clip0_75_512">
<rect width="74.27" height="59.416" fill="white" transform="translate(0.5 0.291992)"/>
</clipPath>
</defs>
</svg>
