<svg width="75" height="60" viewBox="0 0 75 60" fill="none" xmlns="http://www.w3.org/2000/svg">
<g clip-path="url(#clip0_75_520)">
<path d="M37.7596 10.1792L26.5262 19.2773C24.6579 20.7859 24.2981 23.5014 25.7139 25.4394C27.2109 27.505 30.1237 27.9111 32.1313 26.3445L43.6548 17.3857C44.4671 16.759 45.6275 16.8983 46.2658 17.7106C46.9041 18.523 46.7532 19.6834 45.9409 20.3217L43.5155 22.2016L59.646 37.0556V15.146H59.5648L59.1122 14.8559L50.6872 9.4597C48.9117 8.32244 46.8344 7.71899 44.7224 7.71899C42.1926 7.71899 39.7324 8.58935 37.7596 10.1792ZM40.4054 24.6154L34.4058 29.2805C30.7503 32.1353 25.447 31.3926 22.7083 27.6326C20.132 24.0932 20.7819 19.1496 24.1821 16.3993L33.8372 8.58935C32.491 8.02072 31.0405 7.7306 29.5667 7.7306C27.385 7.71899 25.2613 8.36886 23.4394 9.57574L15.084 15.146V41.1405H18.3565L28.9632 50.8188C31.2377 52.896 34.754 52.7336 36.8312 50.4591C37.4695 49.7512 37.8988 48.9272 38.1193 48.0685L40.0921 49.8788C42.355 51.9561 45.8828 51.8052 47.9601 49.5423C48.4823 48.9737 48.8653 48.3122 49.109 47.6275C51.3603 49.1361 54.4239 48.8228 56.3155 46.7572C58.3927 44.4942 58.2418 40.9664 55.9789 38.8892L40.4054 24.6154ZM2.08676 15.146C1.06555 15.146 0.230011 15.9815 0.230011 17.0027V41.1405C0.230011 43.1945 1.88948 44.854 3.94351 44.854H7.65701C9.71104 44.854 11.3705 43.1945 11.3705 41.1405V15.146H2.08676ZM5.80026 37.427C6.2927 37.427 6.76497 37.6226 7.11318 37.9708C7.46139 38.319 7.65701 38.7913 7.65701 39.2837C7.65701 39.7762 7.46139 40.2485 7.11318 40.5967C6.76497 40.9449 6.2927 41.1405 5.80026 41.1405C5.30782 41.1405 4.83555 40.9449 4.48734 40.5967C4.13913 40.2485 3.94351 39.7762 3.94351 39.2837C3.94351 38.7913 4.13913 38.319 4.48734 37.9708C4.83555 37.6226 5.30782 37.427 5.80026 37.427ZM63.3595 15.146V41.1405C63.3595 43.1945 65.019 44.854 67.073 44.854H70.7865C72.8405 44.854 74.5 43.1945 74.5 41.1405V17.0027C74.5 15.9815 73.6645 15.146 72.6433 15.146H63.3595ZM67.073 39.2837C67.073 38.7913 67.2686 38.319 67.6168 37.9708C67.965 37.6226 68.4373 37.427 68.9298 37.427C69.4222 37.427 69.8945 37.6226 70.2427 37.9708C70.5909 38.319 70.7865 38.7913 70.7865 39.2837C70.7865 39.7762 70.5909 40.2485 70.2427 40.5967C69.8945 40.9449 69.4222 41.1405 68.9298 41.1405C68.4373 41.1405 67.965 40.9449 67.6168 40.5967C67.2686 40.2485 67.073 39.7762 67.073 39.2837Z" fill="black"/>
</g>
<defs>
<clipPath id="clip0_75_520">
<rect width="74.27" height="59.416" fill="white" transform="translate(0.230011 0.291992)"/>
</clipPath>
</defs>
</svg>
