<svg width="24" height="25" viewBox="0 0 24 25" fill="none" xmlns="http://www.w3.org/2000/svg">
<path d="M21 19.172H9C8.73478 19.172 8.48043 19.0666 8.29289 18.8791C8.10536 18.6916 8 18.4372 8 18.172C8 17.9068 8.10536 17.6524 8.29289 17.4649C8.48043 17.2774 8.73478 17.172 9 17.172H21C21.2652 17.172 21.5196 17.2774 21.7071 17.4649C21.8946 17.6524 22 17.9068 22 18.172C22 18.4372 21.8946 18.6916 21.7071 18.8791C21.5196 19.0666 21.2652 19.172 21 19.172Z" fill="#231F20" stroke="#00923D" stroke-width="2"/>
<path d="M21 13.172H3C2.73478 13.172 2.48043 13.0666 2.29289 12.8791C2.10536 12.6916 2 12.4372 2 12.172C2 11.9068 2.10536 11.6524 2.29289 11.4649C2.48043 11.2774 2.73478 11.172 3 11.172H21C21.2652 11.172 21.5196 11.2774 21.7071 11.4649C21.8946 11.6524 22 11.9068 22 12.172C22 12.4372 21.8946 12.6916 21.7071 12.8791C21.5196 13.0666 21.2652 13.172 21 13.172Z" fill="#231F20" stroke="#00923D" stroke-width="2"/>
<path d="M15 7.172H3C2.73478 7.172 2.48043 7.06664 2.29289 6.8791C2.10536 6.69157 2 6.43721 2 6.172C2 5.90678 2.10536 5.65243 2.29289 5.46489C2.48043 5.27735 2.73478 5.172 3 5.172H15C15.2652 5.172 15.5196 5.27735 15.7071 5.46489C15.8946 5.65243 16 5.90678 16 6.172C16 6.43721 15.8946 6.69157 15.7071 6.8791C15.5196 7.06664 15.2652 7.172 15 7.172Z" fill="#231F20" stroke="#00923D" stroke-width="2"/>
</svg>
