<svg width="75" height="70" viewBox="0 0 75 70" fill="none" xmlns="http://www.w3.org/2000/svg">
<g clip-path="url(#clip0_26_359)">
<path d="M52.9851 45.1041C52.9851 46.9551 52.9578 48.6583 53.0178 50.356C53.0287 50.5969 53.4161 50.9091 53.6944 51.0351C55.5878 51.862 56.6791 53.6035 56.5154 55.6079C56.3572 57.4863 54.8894 59.0964 52.9469 59.5126C50.9498 59.9398 48.86 58.8499 48.0851 56.8565C47.8178 56.1665 47.4576 56.0296 46.7974 56.0351C42.5031 56.0624 38.2089 56.0679 33.9146 56.0351C31.1482 56.0131 28.7255 54.0964 28.0489 51.4732C27.3505 48.7678 28.4199 45.9474 30.8754 44.6167C31.8685 44.08 33.0852 43.828 34.2202 43.7295C35.9063 43.5816 37.6141 43.7076 39.3166 43.6802C41.712 43.6473 43.5944 41.7525 43.6326 39.3538C43.6708 36.9551 41.8593 34.9069 39.4857 34.8631C35.8735 34.7919 32.2559 34.8521 28.6382 34.8193C28.0162 34.8138 27.9671 35.2245 27.8088 35.6079C26.5702 38.5816 22.8871 39.3374 20.6117 37.0811C19.3403 35.816 18.9638 33.943 19.6568 32.2727C20.328 30.6408 21.9595 29.5126 23.7274 29.5509C25.5935 29.5947 27.0013 30.4984 27.7324 32.2125C28.0325 32.919 28.3436 33.1161 29.0638 33.1052C32.4032 33.0668 35.7371 33.0723 39.0765 33.0887C42.0339 33.1052 44.4293 34.9562 45.155 37.7437C45.8589 40.4491 44.7076 43.2804 42.1758 44.6112C41.2809 45.0822 40.1951 45.3176 39.1801 45.3998C37.5214 45.5257 35.8462 45.4326 34.1765 45.4436C31.4974 45.46 29.5112 47.3987 29.5494 49.9507C29.5876 52.4315 31.5411 54.2826 34.1493 54.2881C38.3835 54.299 42.6177 54.2881 46.852 54.3045C47.4576 54.3045 47.8451 54.2278 48.0742 53.5268C48.4726 52.3275 49.3456 51.4677 50.5515 51.0679C51.1462 50.8708 51.2663 50.5586 51.2608 49.9891C51.239 44.9014 51.2499 39.8193 51.2499 34.7317C51.2499 34.4524 51.1735 34.1347 51.2826 33.9047C51.43 33.598 51.6864 33.1983 51.9592 33.138C52.2157 33.0832 52.7504 33.3516 52.8268 33.5871C53.0233 34.195 53.4161 34.184 53.8963 34.184C57.0502 34.1785 60.1985 34.184 63.3524 34.184C63.6907 34.184 64.0345 34.1731 64.3728 34.2059C65.3331 34.299 65.6496 34.9891 65.0603 35.7667C64.2364 36.851 63.4015 37.9299 62.523 38.965C62.1029 39.4578 62.0592 39.8029 62.4957 40.3176C63.3633 41.3253 64.1872 42.3713 64.9675 43.4502C65.1858 43.7568 65.3604 44.3154 65.224 44.6002C65.093 44.874 64.5365 45.0712 64.1654 45.0767C60.8588 45.115 57.5522 45.0986 54.2455 45.0986C53.8799 45.0986 53.5143 45.0986 52.996 45.0986L52.9851 45.1041ZM53.0396 43.3078H62.523C62.4739 43.138 62.4739 43.0668 62.4412 43.023C61.9446 42.3932 61.4481 41.7579 60.9461 41.1391C59.7948 39.7152 59.7893 39.6824 60.9352 38.2421C61.4917 37.5356 62.0538 36.8346 62.7031 36.0186H53.0396V43.3133V43.3078ZM23.7001 31.2979C22.1886 31.2979 21.0264 32.4754 21.0319 34.0142C21.0319 35.5038 22.2596 36.6867 23.771 36.6648C25.2443 36.6429 26.3738 35.4874 26.3847 33.9923C26.3956 32.4754 25.2224 31.2979 23.7001 31.2979ZM54.7748 55.1424C54.7639 53.598 53.6235 52.4973 52.0575 52.5082C50.5406 52.5192 49.4111 53.7076 49.4438 55.2574C49.4765 56.7196 50.6551 57.8587 52.1284 57.8532C53.678 57.8478 54.7912 56.7087 54.7748 55.1424Z" fill="#1B1B1B"/>
<path d="M31.1646 16.3801C31.2082 17.908 30.6298 19.3757 29.9041 20.7886C28.5454 23.4337 26.652 25.6736 24.5622 27.7601C24.0002 28.3242 23.4764 28.3735 22.8925 27.7875C20.3989 25.3012 18.1672 22.6287 16.8576 19.3045C14.7624 13.9923 18.3909 8.58707 23.962 8.6747C27.918 8.74041 31.2246 12.2289 31.1646 16.3801ZM23.7055 26.1939C24.1693 25.701 24.5677 25.3176 24.9223 24.8959C26.7175 22.793 28.4199 20.6298 29.2111 17.9135C29.9478 15.3833 29.0365 12.8478 26.903 11.3746C24.9278 10.011 22.265 10.0657 20.3061 11.517C18.2818 13.0175 17.4469 15.5805 18.2381 18.0613C19.2585 21.2486 21.3811 23.7021 23.6946 26.1939H23.7055Z" fill="#1B1B1B"/>
<path d="M23.6892 12.563C25.7081 12.552 27.3014 14.1128 27.3177 16.1172C27.3287 18.138 25.7736 19.7481 23.7819 19.7755C21.7849 19.8029 20.0988 18.1983 20.0879 16.2596C20.0715 14.2059 21.6648 12.5739 23.6892 12.563ZM23.7001 18.0449C24.7477 18.0613 25.6044 17.2399 25.6262 16.1993C25.6481 15.1917 24.7968 14.2935 23.7765 14.2552C22.707 14.2114 21.8285 15.0767 21.8285 16.172C21.8285 17.2563 22.6033 18.034 23.7001 18.0504V18.0449Z" fill="#1B1B1B"/>
<path d="M1.6013 39.425C1.6013 30.5695 1.6013 21.7141 1.6013 12.8587C1.6013 11.5334 2.03237 10.8707 3.24371 10.3833C10.539 7.45344 17.8453 4.53449 25.1351 1.59364C25.9645 1.25958 26.7012 1.36363 27.4923 1.68126C34.2693 4.41401 41.0517 7.13033 47.8232 9.86856C48.3361 10.0767 48.7672 10.0767 49.2801 9.86856C56.1171 7.10295 62.965 4.35925 69.8129 1.61554C71.6735 0.870747 73.1413 1.88389 73.1413 3.89922C73.1413 21.6101 73.1413 39.3209 73.1359 57.0372C73.1359 58.5268 72.7266 59.1292 71.3352 59.6824C64.1654 62.5575 56.9956 65.4272 49.8367 68.3297C48.9309 68.6966 48.1179 68.6747 47.2176 68.3078C40.4679 65.5695 33.7073 62.8697 26.9522 60.1424C26.3901 59.9124 25.9263 59.9507 25.3643 60.1752C18.5492 62.9299 11.7231 65.6681 4.89702 68.3899C3.06364 69.1238 1.6013 68.0997 1.6013 66.1336C1.6013 57.2289 1.6013 48.3297 1.6013 39.425Z" stroke="#1B1B1B" stroke-width="5" stroke-miterlimit="10"/>
</g>
<defs>
<clipPath id="clip0_26_359">
<rect width="74.2683" height="70" fill="white" transform="translate(0.23172)"/>
</clipPath>
</defs>
</svg>
