<svg width="75" height="60" viewBox="0 0 75 60" fill="none" xmlns="http://www.w3.org/2000/svg">
<g clip-path="url(#clip0_75_524)">
<path d="M26.2245 0.291992C30.164 0.291992 33.9422 1.85696 36.7279 4.64263C39.5135 7.42829 41.0785 11.2065 41.0785 15.146C41.0785 19.0855 39.5135 22.8637 36.7279 25.6494C33.9422 28.435 30.164 30 26.2245 30C22.285 30 18.5068 28.435 15.7211 25.6494C12.9355 22.8637 11.3705 19.0855 11.3705 15.146C11.3705 11.2065 12.9355 7.42829 15.7211 4.64263C18.5068 1.85696 22.285 0.291992 26.2245 0.291992ZM20.9212 35.5702H31.5279C33.9184 35.5702 36.2161 35.9764 38.3514 36.7191C37.7132 38.7035 37.365 40.804 37.365 42.9972C37.365 49.902 40.7884 56.0061 46.0453 59.708H3.6766C1.77343 59.708 0.230011 58.1646 0.230011 56.2614C0.230011 44.8308 9.49055 35.5702 20.9212 35.5702ZM41.0785 42.9972C41.0785 38.5653 42.8391 34.3148 45.973 31.181C49.1068 28.0471 53.3573 26.2865 57.7893 26.2865C62.2212 26.2865 66.4717 28.0471 69.6055 31.181C72.7394 34.3148 74.5 38.5653 74.5 42.9972C74.5 47.4292 72.7394 51.6797 69.6055 54.8135C66.4717 57.9474 62.2212 59.708 57.7893 59.708C53.3573 59.708 49.1068 57.9474 45.973 54.8135C42.8391 51.6797 41.0785 47.4292 41.0785 42.9972ZM57.7893 33.7135C56.768 33.7135 55.9325 34.549 55.9325 35.5702V42.9972C55.9325 44.0185 56.768 44.854 57.7893 44.854H63.3595C64.3807 44.854 65.2163 44.0185 65.2163 42.9972C65.2163 41.976 64.3807 41.1405 63.3595 41.1405H59.646V35.5702C59.646 34.549 58.8105 33.7135 57.7893 33.7135Z" fill="black"/>
</g>
<defs>
<clipPath id="clip0_75_524">
<rect width="74.27" height="59.416" fill="white" transform="translate(0.230011 0.291992)"/>
</clipPath>
</defs>
</svg>
