<svg width="44" height="45" viewBox="0 0 44 45" fill="none" xmlns="http://www.w3.org/2000/svg">
<path d="M36 3.33325L33.6833 7.72492L28.5 8.42492L32.25 11.8416L31.3667 16.6666L36 14.3916L40.6333 16.6666L39.75 11.8416L43.5 8.42492L38.3167 7.72492L36 3.33325Z" fill="#47B073"/>
<path d="M10 28.3333L7.68333 32.7249L2.5 33.4249L6.25 36.8416L5.36667 41.6666L10 39.3916L14.6333 41.6666L13.75 36.8416L17.5 33.4249L12.3167 32.7249L10 28.3333Z" fill="#47B073"/>
<path d="M29 19L26.22 24.27L20 25.11L24.5 29.21L23.44 35L29 32.27L34.56 35L33.5 29.21L38 25.11L31.78 24.27L29 19Z" fill="#47B073"/>
</svg>
